<?xml version="1.0" standalone="no"?>
<!DOCTYPE svg PUBLIC "-//W3C//DTD SVG 20010904//EN"
 "http://www.w3.org/TR/2001/REC-SVG-20010904/DTD/svg10.dtd">
<svg version="1.0" xmlns="http://www.w3.org/2000/svg"
 width="256.000000pt" height="256.000000pt" viewBox="0 0 256.000000 256.000000"
 preserveAspectRatio="xMidYMid meet">
<metadata>
Created by potrace 1.14, written by Peter Selinger 2001-2017
</metadata>
<g transform="translate(0.000000,256.000000) scale(0.100000,-0.100000)"
fill="#000000" stroke="none">
<path d="M0 1280 l0 -1280 1280 0 1280 0 0 1280 0 1280 -1280 0 -1280 0 0
-1280z m1539 773 c14 -11 36 -39 49 -64 20 -38 23 -55 20 -129 -4 -70 -11
-101 -42 -175 -21 -49 -40 -98 -43 -107 -6 -20 228 -611 238 -601 14 15 289
738 295 775 13 78 -22 145 -106 200 -24 16 -17 17 143 17 l169 1 -42 -47 c-66
-75 -111 -177 -361 -820 -128 -332 -236 -603 -239 -603 -4 0 -71 160 -150 356
-79 195 -146 357 -149 359 -4 2 -80 -158 -170 -356 -90 -197 -167 -359 -171
-359 -3 0 -116 264 -250 588 -276 665 -321 762 -392 833 l-49 49 323 -1 c254
0 319 -3 304 -12 -85 -53 -125 -123 -111 -196 5 -27 318 -805 329 -818 1 -2
38 74 81 168 l78 172 -37 116 c-45 145 -60 242 -53 351 10 171 78 283 195 321
40 13 111 4 141 -18z"/>
<path d="M1409 2008 c-18 -34 -4 -132 36 -254 20 -60 40 -113 44 -117 12 -12
61 120 70 187 17 122 -25 206 -101 206 -28 0 -40 -5 -49 -22z"/>
</g>
</svg>
